<?xml version="1.0" standalone="no"?>
<!DOCTYPE svg PUBLIC "-//W3C//DTD SVG 20010904//EN"
 "http://www.w3.org/TR/2001/REC-SVG-20010904/DTD/svg10.dtd">
<svg version="1.0" xmlns="http://www.w3.org/2000/svg"
 width="256.000000pt" height="256.000000pt" viewBox="0 0 256.000000 256.000000"
 preserveAspectRatio="xMidYMid meet">

<g transform="translate(0.000000,256.000000) scale(0.100000,-0.100000)"
fill="#000000" stroke="none">
<path d="M445 2226 c-22 -7 -54 -20 -71 -29 -43 -22 -112 -100 -137 -155 -22
-46 -22 -54 -22 -602 0 -549 0 -555 22 -602 30 -66 104 -141 166 -169 50 -23
64 -24 314 -27 295 -4 312 0 339 65 19 43 5 93 -33 123 -24 19 -40 20 -265 20
-192 0 -245 3 -268 15 -61 31 -60 27 -60 397 l0 338 850 0 850 0 0 -60 c0 -97
39 -150 111 -150 47 0 85 30 100 78 7 25 10 121 7 282 -3 226 -5 249 -25 292
-30 66 -104 141 -166 169 l-52 24 -810 2 c-634 1 -819 -1 -850 -11z m1625
-211 c48 -25 60 -52 60 -132 l0 -73 -850 0 -850 0 0 71 c0 81 9 102 53 129 31
19 57 20 795 20 657 0 767 -2 792 -15z"/>
<path d="M703 1375 c-33 -14 -63 -59 -63 -95 0 -37 30 -81 65 -96 48 -20 352
-20 399 0 43 18 66 51 66 96 0 42 -20 75 -60 95 -40 21 -360 21 -407 0z"/>
<path d="M1605 1362 c-200 -69 -318 -232 -318 -437 0 -190 93 -334 270 -418
64 -30 74 -32 183 -32 103 0 122 3 180 27 l64 27 107 -104 c99 -98 109 -105
146 -105 68 0 124 65 108 127 -3 15 -51 72 -108 130 l-101 103 13 33 c35 85
44 117 48 174 18 211 -116 411 -318 474 -78 24 -205 25 -274 1z m211 -207
c200 -59 236 -331 60 -440 -44 -27 -58 -30 -131 -30 -73 0 -87 3 -131 30 -30
19 -60 49 -79 79 -26 44 -30 58 -30 125 0 65 4 83 28 123 33 56 80 95 139 113
57 18 84 18 144 0z"/>
</g>
</svg>
